<svg width="208" height="44" viewBox="0 0 208 44" fill="none" xmlns="http://www.w3.org/2000/svg">
<path d="M28.4415 40.1455C28.9322 40.0064 29.6969 39.8673 30.1991 39.7397C30.7355 40.3774 26.7752 24.2397 28.0991 6.17752C27.5399 6.10796 27.517 6.0384 26.9578 5.95725C27.3116 5.89928 24.6752 15.9274 28.4415 40.1455Z" fill="white"/>
<path d="M0.994084 30.6508H0.457678C-0.0606984 25.6752 -0.140907 20.6625 0.218007 15.6724H0.788652C0.585326 20.6621 0.737897 25.6602 1.24517 30.6276" fill="white"/>
<path d="M3.10592 21.1675L2.50104 21.0864C2.95285 16.6035 3.88275 12.1838 5.27437 7.90494L5.91349 8.03246C4.4527 12.2778 3.50981 16.6891 3.10592 21.1675Z" fill="white"/>
<path d="M37.2292 29.2247H37.7884C37.7884 29.2247 38.3819 19.869 37.6971 16.5649H37.2977C37.5635 20.7786 37.4527 25.0081 36.9667 29.2015" fill="white"/>
<path d="M7.78428 34.72H7.33917C7.33917 34.72 7.8071 19.3706 8.67448 14.003H8.99404C8.99404 14.1769 8.0696 19.9734 7.78428 34.6852" fill="white"/>
<path d="M34.238 34.4648H33.6674C33.6674 34.4648 33.9299 19.1038 34.9684 13.7014H35.6418C35.6418 13.8637 34.5005 19.6487 34.4434 34.372" fill="white"/>
<path d="M21.684 43.9018C22.3098 43.8909 22.9284 43.7653 23.5101 43.5308C22.148 29.7621 22.4815 15.8745 24.503 2.18959C24.0922 2.03888 23.8182 1.88817 23.3617 1.73746C23.3617 1.73746 22.8025 4.62416 22.0264 11.4525C20.8775 22.2354 20.7476 33.1053 21.6384 43.9134" fill="white"/>
<path d="M16.8469 0.949007C16.0594 14.3391 14.2676 28.0075 15.9796 41.4323C15.9111 40.8991 17.9996 41.4323 17.9312 40.9454C16.3448 28.1929 16.9953 14.0725 17.7486 1.15768C17.4678 1.01864 17.1593 0.947235 16.8469 0.949007Z" fill="white"/>
<path d="M16.982 43.0207C16.1945 43.183 15.9549 43.3453 15.1674 43.5076C12.3502 30.7834 11.218 17.734 11.8006 4.70531C12.1735 4.59644 12.569 4.59644 12.9419 4.70531C12.9989 4.78646 13.2272 25.2136 16.9478 42.9628" fill="white"/>
<path d="M19.9864 42.1395C19.5742 42.2436 19.1432 42.2436 18.731 42.1395C18.0956 29.5323 18.765 16.8921 20.7282 4.42691C20.7282 4.28779 21.082 4.42691 21.2076 4.42691C21.3331 4.42691 19.1418 18.4083 20.2603 42.0004" fill="white"/>
<path d="M25.8844 40.3657C25.7996 40.4024 25.7084 40.4213 25.6162 40.4213C25.5241 40.4213 25.4328 40.4024 25.348 40.3657C24.5291 31.5962 24.327 22.7784 24.7432 13.9797C24.7432 13.9101 24.9372 13.9797 25.0056 13.9797C24.6643 22.765 25.0461 31.5639 26.1469 40.2846" fill="white"/>
<path d="M11.6879 41.6179C11.432 41.673 11.1677 41.673 10.9118 41.6179C9.8989 29.6675 9.4951 17.6719 9.70204 5.67908C9.70204 5.52837 10.0558 5.60952 10.17 5.67908C10.2841 5.74864 9.82758 15.5565 12.2129 41.5252" fill="white"/>
<path d="M8.4468 36.888L7.30551 37.143C5.90214 27.1046 5.3941 16.9581 5.7876 6.82687L6.92889 7.03555C7.21421 7.03555 6.12999 15.7768 8.65224 36.8648" fill="white"/>
<path d="M4.19129 40.4701C4.54509 40.389 5.41247 40.2962 5.77768 40.2151C4.86302 29.4547 5.0466 18.627 6.3255 7.90494L5.18421 7.60352C5.10432 7.82379 3.15272 18.8605 4.17988 40.5049" fill="white"/>
<path d="M31.9577 31.8796L32.8251 31.7289C31.5931 25.1408 31.2476 18.4133 31.798 11.7307H31.1132C30.3223 18.4346 30.3223 25.2105 31.1132 31.9144" fill="white"/>
<path d="M32.1297 36.969L33.271 36.7255C32.6131 27.6994 32.9962 18.6261 34.4123 9.69027L33.271 9.36566C33.5335 9.36566 31.3308 15.313 32.1297 36.969Z" fill="white"/>
<path d="M60.1346 16.8433H60.3058C60.4314 16.8433 60.5113 16.9129 60.5569 17.0636L63.5128 25.5498L65.9894 18.4431C65.9929 18.3814 65.9929 18.3194 65.9894 18.2577C65.9942 18.2037 65.9942 18.1493 65.9894 18.0954C65.9867 18.0155 65.9601 17.9383 65.9133 17.8742C65.8664 17.81 65.8014 17.7618 65.7269 17.736C65.4686 17.6278 65.1952 17.5613 64.9166 17.5389C64.7911 17.5389 64.7226 17.423 64.7226 17.2375C64.7116 17.1451 64.7116 17.0516 64.7226 16.9592L65.6813 17.0172H66.5601H67.4617C67.7813 17.0172 68.0323 17.0172 68.2264 16.9592C68.2215 17.0055 68.2215 17.0521 68.2264 17.0983C68.2301 17.1446 68.2301 17.1912 68.2264 17.2375C68.2264 17.423 68.1579 17.5273 68.0095 17.5505C67.7378 17.5773 67.472 17.6477 67.222 17.7592C67.1278 17.8047 67.0438 17.8693 66.9751 17.9491C66.9064 18.0288 66.8545 18.122 66.8226 18.2229L63.1362 28.6567H62.9422C62.8052 28.6567 62.7025 28.5524 62.6341 28.3437L59.7123 20.101L56.7336 28.622C56.6773 28.6353 56.6187 28.6353 56.5624 28.622C56.4254 28.622 56.3113 28.5176 56.2428 28.3089L52.488 18.1185C52.459 18.0394 52.4148 17.9668 52.358 17.9051C52.3012 17.8434 52.2329 17.7938 52.157 17.7592C51.8845 17.6416 51.5958 17.5673 51.3011 17.5389C51.1641 17.5389 51.107 17.3998 51.107 17.2143C51.0993 17.1256 51.0993 17.0363 51.107 16.9476H51.6434H52.2141H52.7733H53.2527H54.3141L55.4553 16.8897C55.4639 16.9822 55.4639 17.0754 55.4553 17.1679C55.4553 17.3418 55.3869 17.4461 55.2613 17.4693C54.9903 17.4845 54.7238 17.5473 54.4738 17.6548C54.3936 17.6836 54.3242 17.737 54.2751 17.8076C54.2261 17.8782 54.1998 17.9626 54.1999 18.049C54.1839 18.1176 54.1839 18.1891 54.1999 18.2577L56.8477 25.4802L60.1346 16.8433Z" fill="white"/>
<path d="M77.4714 27.1612C77.462 27.2571 77.4796 27.3537 77.522 27.4399C77.5644 27.526 77.63 27.5982 77.7111 27.6481C78.0046 27.7715 78.3109 27.861 78.6241 27.9148C78.7383 27.9148 78.7953 28.0075 78.7953 28.193C78.804 28.2894 78.804 28.3864 78.7953 28.4828L77.654 28.4133H76.6269H75.5769L74.5041 28.4828C74.4955 28.3864 74.4955 28.2894 74.5041 28.193C74.5041 28.0307 74.5612 27.9379 74.6753 27.9148C74.9901 27.8746 75.2976 27.7887 75.5883 27.6597C75.6707 27.6075 75.7375 27.5335 75.7817 27.4457C75.8259 27.3579 75.8459 27.2596 75.8394 27.1612V18.2577C75.8459 18.1593 75.8259 18.0609 75.7817 17.9731C75.7375 17.8853 75.6707 17.8114 75.5883 17.7591C75.3015 17.6191 74.9922 17.5327 74.6753 17.5041C74.6451 17.5017 74.6161 17.4906 74.5919 17.4721C74.5676 17.4537 74.5491 17.4286 74.5383 17.3998C74.5265 17.3346 74.5265 17.2678 74.5383 17.2027C74.5298 17.1101 74.5298 17.017 74.5383 16.9244L75.6796 16.9824H76.7068H77.7111L78.8524 16.9244C78.826 17.0125 78.7916 17.0979 78.7497 17.1795C78.7497 17.3534 78.6926 17.4577 78.5785 17.4809C78.2615 17.5095 77.9522 17.5959 77.6655 17.736C77.5843 17.7887 77.5191 17.8631 77.4768 17.9511C77.4345 18.039 77.4169 18.137 77.4258 18.2345L77.4714 27.1612Z" fill="white"/>
<path d="M88.7243 27.1266C88.7202 27.2152 88.7432 27.3029 88.7902 27.3776C88.8372 27.4524 88.9059 27.5105 88.9868 27.5439C89.2135 27.6422 89.4596 27.6859 89.7058 27.6714H91.6117C91.9094 27.6756 92.2059 27.6326 92.4905 27.5439C92.722 27.4585 92.9351 27.3286 93.1182 27.1613C93.303 26.9882 93.4574 26.7843 93.5747 26.5585C93.7233 26.3013 93.8457 26.0294 93.9399 25.747C93.953 25.7032 93.9806 25.6653 94.0181 25.6399C94.0555 25.6146 94.1006 25.6032 94.1454 25.6079C94.2053 25.5922 94.2681 25.5922 94.328 25.6079L94.5334 25.7006C94.4573 26.0484 94.3774 26.4348 94.2937 26.8599C94.2253 27.2541 94.1568 27.6946 94.0997 28.1815C94.0997 28.3091 94.0997 28.3902 93.9856 28.425C93.9236 28.4629 93.8525 28.4829 93.7802 28.483C93.5861 28.483 93.3351 28.483 93.0383 28.483C92.7798 28.4681 92.5207 28.4681 92.2622 28.483H87.8797H86.864C86.4531 28.483 86.0651 28.483 85.7227 28.5525C85.7147 28.4561 85.7147 28.3591 85.7227 28.2627C85.7227 28.1004 85.7797 28.0076 85.8939 27.9845C86.2317 27.9426 86.5621 27.8529 86.8754 27.7178C86.9589 27.675 87.0283 27.6083 87.0749 27.5259C87.1216 27.4434 87.1434 27.349 87.1379 27.2541V18.3274C87.1468 18.2299 87.1291 18.1319 87.0869 18.044C87.0446 17.956 86.9793 17.8816 86.8982 17.8288C86.5995 17.6883 86.2789 17.602 85.9509 17.5738C85.9243 17.5695 85.899 17.5588 85.8772 17.5427C85.8554 17.5266 85.8376 17.5055 85.8254 17.4811C85.8083 17.4204 85.8083 17.3562 85.8254 17.2956C85.816 17.1953 85.816 17.0944 85.8254 16.9941L86.9667 17.0521H87.9482H89.215L90.3563 16.9941C90.3648 17.0867 90.3648 17.1798 90.3563 17.2724C90.3563 17.4695 90.2878 17.5738 90.1623 17.5854C89.7718 17.6146 89.3875 17.7005 89.021 17.8404C88.9064 17.8904 88.8097 17.9752 88.7443 18.0831C88.679 18.191 88.648 18.3168 88.6558 18.4433L88.7243 27.1266Z" fill="white"/>
<path d="M110.477 23.0341C110.535 22.3102 110.446 21.5818 110.217 20.894C109.987 20.2061 109.621 19.5733 109.142 19.0345C108.059 18.0984 106.657 17.6321 105.238 17.736H103.709V27.0106C103.707 27.1147 103.739 27.2166 103.8 27.3004C103.877 27.3958 103.98 27.4647 104.097 27.4975C104.287 27.5538 104.482 27.5887 104.679 27.6018C104.923 27.6018 105.231 27.6018 105.604 27.6018C106.377 27.6254 107.149 27.5156 107.886 27.2772C108.455 27.0963 108.972 26.778 109.393 26.3498C109.782 25.938 110.068 25.4369 110.226 24.889C110.412 24.2654 110.5 23.616 110.488 22.9645L110.477 23.0341ZM112.326 22.6283C112.327 23.3281 112.207 24.0226 111.972 24.6803C111.73 25.356 111.362 25.9779 110.888 26.5121C110.372 27.0739 109.746 27.5201 109.05 27.8221C108.227 28.1726 107.34 28.3425 106.448 28.3206H102.853H101.826L100.685 28.3902C100.676 28.2937 100.676 28.1967 100.685 28.1003C100.685 27.938 100.742 27.8453 100.879 27.8221C101.195 27.7556 101.505 27.6586 101.803 27.5323C101.889 27.4911 101.961 27.4251 102.009 27.3426C102.058 27.26 102.082 27.1647 102.077 27.0685V18.2577C102.087 18.1591 102.068 18.0596 102.021 17.9725C101.974 17.8855 101.902 17.8151 101.815 17.7708C101.517 17.6372 101.202 17.5474 100.879 17.5042C100.847 17.5013 100.817 17.4902 100.791 17.4719C100.765 17.4536 100.744 17.4288 100.73 17.3998C100.713 17.3353 100.713 17.2673 100.73 17.2027C100.722 17.1102 100.722 17.0171 100.73 16.9245H101.369H101.883H102.362H106.448C107.329 16.9054 108.204 17.0589 109.027 17.3766C109.724 17.6458 110.355 18.0651 110.876 18.6055C111.379 19.1147 111.768 19.7275 112.018 20.4025C112.267 21.1089 112.391 21.8547 112.383 22.6052" fill="white"/>
<path d="M122.21 17.736V22.2109H124.938C125.046 22.2156 125.152 22.1857 125.242 22.1253C125.332 22.0649 125.402 21.9773 125.44 21.8747C125.553 21.6074 125.633 21.3271 125.68 21.04C125.693 20.9694 125.733 20.9065 125.79 20.8637C125.847 20.8208 125.917 20.801 125.988 20.8081H126.136H126.273C126.273 21.0632 126.273 21.353 126.273 21.6776C126.273 22.0022 126.273 22.2921 126.273 22.5355C126.273 22.779 126.273 22.9761 126.273 23.2659C126.273 23.5557 126.273 23.8803 126.341 24.2397H126.079C126.005 24.2503 125.93 24.2324 125.869 24.1894C125.808 24.1465 125.764 24.0817 125.748 24.0079C125.702 23.7207 125.621 23.4404 125.508 23.1732C125.47 23.0706 125.401 22.9829 125.311 22.9226C125.221 22.8622 125.114 22.8323 125.006 22.837H122.279V26.9641C122.279 27.2076 122.438 27.3815 122.758 27.4626C123.269 27.5589 123.79 27.5978 124.31 27.5786H125.269C125.572 27.5872 125.875 27.536 126.159 27.4278C126.4 27.3353 126.624 27.2021 126.821 27.0337C127.021 26.856 127.194 26.6489 127.334 26.4192C127.497 26.1729 127.646 25.9175 127.78 25.6541C127.78 25.5729 127.894 25.5266 128.042 25.5266C128.102 25.513 128.164 25.513 128.225 25.5266L128.407 25.6309C128.292 25.8883 128.2 26.1561 128.133 26.4308C128.053 26.7323 127.985 27.0337 127.916 27.3119C127.848 27.5902 127.768 27.8336 127.7 28.0307C127.631 28.2278 127.528 28.3321 127.403 28.3321H127.003H126.433H125.817C125.634 28.3215 125.451 28.3215 125.269 28.3321H121.445H120.361L119.22 28.4017C119.212 28.3052 119.212 28.2083 119.22 28.1118C119.22 27.9495 119.22 27.8568 119.402 27.8336C119.727 27.7855 120.045 27.6999 120.35 27.5786C120.441 27.5344 120.517 27.4632 120.568 27.3742C120.619 27.2852 120.643 27.1827 120.635 27.0801V18.2577C120.645 18.1604 120.626 18.0624 120.582 17.9759C120.537 17.8893 120.468 17.818 120.384 17.7707C120.068 17.645 119.738 17.5556 119.402 17.5041C119.277 17.5041 119.22 17.3766 119.22 17.2027C119.22 17.0288 119.22 17.0983 119.22 17.052C119.22 17.0056 119.22 16.9708 119.22 16.9244L120.487 16.994H121.388H124.812C125.337 16.994 125.794 16.994 126.182 16.994C126.57 16.994 126.821 16.994 126.946 16.994C127.072 16.994 127.197 17.0867 127.255 17.2838C127.315 17.508 127.357 17.7367 127.38 17.9678C127.38 18.2345 127.46 18.5243 127.506 18.8257C127.544 19.0991 127.633 19.3627 127.768 19.6025C127.68 19.671 127.571 19.7077 127.46 19.7068C127.4 19.7153 127.339 19.7041 127.285 19.6749C127.232 19.6457 127.189 19.6 127.163 19.5445C127.041 19.2778 126.904 19.0184 126.752 18.7678C126.638 18.5631 126.487 18.3822 126.307 18.2345C126.129 18.0893 125.923 17.9828 125.702 17.9215C125.412 17.8456 125.112 17.8104 124.812 17.8171L122.21 17.736Z" fill="white"/>
<path d="M138.964 22.5587C139.633 22.6001 140.298 22.4212 140.859 22.0486C141.101 21.8189 141.288 21.5345 141.403 21.2185C141.518 20.9024 141.558 20.5633 141.521 20.2285C141.523 19.8912 141.477 19.5553 141.384 19.2315C141.295 18.9384 141.143 18.6691 140.939 18.4431C140.711 18.2093 140.434 18.031 140.128 17.9215C139.739 17.7863 139.329 17.7235 138.918 17.736H138.097V22.5587H138.964ZM139.341 23.2775H138.097V27.1264C138.091 27.2438 138.124 27.3596 138.19 27.4561C138.256 27.5525 138.352 27.6241 138.462 27.6597C138.832 27.7811 139.215 27.8551 139.603 27.88C139.752 27.88 139.82 28.0075 139.82 28.1814C139.829 28.2817 139.829 28.3826 139.82 28.4828L138.679 28.4133H137.366H136.316L135.175 28.4828C135.166 28.3864 135.166 28.2894 135.175 28.193C135.175 28.0307 135.175 27.9379 135.358 27.9148C135.681 27.8835 135.998 27.7973 136.293 27.6597C136.383 27.6138 136.457 27.5419 136.506 27.453C136.554 27.3642 136.576 27.2626 136.567 27.1612V18.2577C136.574 18.1593 136.554 18.0609 136.51 17.9731C136.466 17.8853 136.399 17.8114 136.316 17.7591C136.006 17.606 135.668 17.5192 135.323 17.5041C135.209 17.5041 135.152 17.3882 135.152 17.2027C135.144 17.1101 135.144 17.017 135.152 16.9244L136.293 16.9824H137.366H139.717C140.734 16.9076 141.744 17.199 142.571 17.8055C142.887 18.0828 143.137 18.4292 143.303 18.8186C143.469 19.2081 143.547 19.6306 143.529 20.0546C143.531 20.3303 143.489 20.6044 143.404 20.8661C143.31 21.1586 143.176 21.4359 143.004 21.6892C142.805 21.9698 142.566 22.2197 142.297 22.4312C141.993 22.6688 141.654 22.8566 141.292 22.9877L144.214 27.0453C144.402 27.3169 144.658 27.533 144.956 27.6713C145.196 27.7804 145.444 27.8696 145.698 27.9379C145.812 27.9379 145.858 28.0423 145.858 28.1814C145.867 28.2855 145.867 28.3903 145.858 28.4944L144.876 28.4365C144.499 28.4365 144.134 28.4365 143.815 28.4365C143.537 28.4237 143.273 28.3083 143.073 28.1118C142.8 27.8812 142.562 27.6118 142.365 27.3119L139.341 23.2775Z" fill="white"/>
<path d="M160.616 25.6077V18.3388C160.625 18.2311 160.604 18.123 160.556 18.0267C160.507 17.9304 160.433 17.8498 160.342 17.7939C160.042 17.6595 159.722 17.5772 159.395 17.5505C159.269 17.5505 159.201 17.4345 159.201 17.249C159.192 17.1565 159.192 17.0634 159.201 16.9708L160.091 17.0288H160.947H161.757L162.579 16.9708C162.587 17.0634 162.587 17.1565 162.579 17.249C162.579 17.4345 162.579 17.5389 162.408 17.5505C162.12 17.5728 161.84 17.6557 161.586 17.7939C161.512 17.8551 161.454 17.9333 161.416 18.0221C161.379 18.1109 161.362 18.2076 161.369 18.304V28.6104C161.332 28.6193 161.293 28.6193 161.255 28.6104H161.107C161.027 28.6077 160.95 28.5879 160.878 28.5524C160.785 28.482 160.704 28.3957 160.639 28.2973L153.54 18.9301V27.1728C153.531 27.2702 153.549 27.3683 153.591 27.4562C153.633 27.5441 153.698 27.6185 153.78 27.6713C154.082 27.8007 154.401 27.8865 154.727 27.9264C154.841 27.9264 154.898 28.0191 154.898 28.2046C154.906 28.301 154.906 28.398 154.898 28.4944L154.019 28.4249H153.186H152.364L151.508 28.4944C151.5 28.398 151.5 28.301 151.508 28.2046C151.508 28.0423 151.577 27.9495 151.702 27.9264C151.996 27.8874 152.281 27.8013 152.547 27.6713C152.623 27.6149 152.683 27.5391 152.721 27.4516C152.759 27.3641 152.774 27.2679 152.764 27.1728V18.1649C152.767 18.083 152.751 18.0014 152.717 17.9269C152.684 17.8523 152.633 17.7869 152.57 17.736C152.31 17.6033 152.027 17.5245 151.737 17.5041C151.611 17.5041 151.543 17.3766 151.543 17.2027C151.536 17.1526 151.536 17.102 151.543 17.052C151.538 17.0096 151.538 16.9668 151.543 16.9244L152.205 16.9824H152.798H153.357C153.581 16.9634 153.807 16.9634 154.031 16.9824C154.141 17.0024 154.239 17.0647 154.305 17.1563L160.616 25.6077Z" fill="white"/>
<path d="M172.496 17.736V22.2109H175.224C175.33 22.2149 175.435 22.1845 175.523 22.1241C175.612 22.0637 175.679 21.9763 175.715 21.8747C175.828 21.6074 175.908 21.3271 175.954 21.04C175.968 20.9672 176.009 20.9025 176.069 20.8593C176.128 20.8162 176.202 20.7979 176.274 20.8081H176.411H176.548C176.548 21.0632 176.548 21.353 176.491 21.6776C176.434 22.0022 176.491 22.2921 176.491 22.5355C176.491 22.779 176.491 22.9761 176.491 23.2659C176.491 23.5557 176.491 23.8803 176.559 24.2397H176.297C176.223 24.2503 176.148 24.2324 176.087 24.1894C176.025 24.1465 175.982 24.0817 175.966 24.0079C175.92 23.7207 175.839 23.4404 175.726 23.1732C175.69 23.0715 175.623 22.9842 175.535 22.9238C175.447 22.8634 175.342 22.833 175.235 22.837H172.508V26.9641C172.508 27.2076 172.656 27.3815 172.976 27.4626C173.487 27.5584 174.008 27.5973 174.528 27.5786H175.498C175.798 27.5875 176.096 27.5363 176.377 27.4278C176.618 27.3353 176.841 27.2021 177.039 27.0337C177.239 26.856 177.412 26.6489 177.552 26.4192C177.715 26.1729 177.863 25.9175 177.997 25.6541C177.997 25.5729 178.111 25.5266 178.26 25.5266C178.32 25.513 178.382 25.513 178.442 25.5266L178.625 25.6309C178.509 25.8883 178.418 26.1561 178.351 26.4308C178.271 26.7323 178.203 27.0337 178.134 27.3119C178.066 27.5902 177.986 27.8336 177.917 28.0307C177.849 28.2278 177.746 28.3321 177.632 28.3321H177.221H176.651H176.034C175.856 28.3217 175.677 28.3217 175.498 28.3321H171.652H170.51L169.369 28.4017C169.361 28.3052 169.361 28.2083 169.369 28.1118C169.369 27.9495 169.438 27.8568 169.552 27.8336C169.876 27.7872 170.194 27.7016 170.499 27.5786C170.593 27.5362 170.671 27.4657 170.724 27.3766C170.777 27.2874 170.802 27.184 170.796 27.0801V18.2577C170.803 18.1594 170.782 18.0612 170.735 17.9747C170.689 17.8883 170.619 17.8175 170.533 17.7707C170.217 17.645 169.888 17.5556 169.552 17.5041C169.438 17.5041 169.369 17.3766 169.369 17.2027C169.369 17.0288 169.369 17.0983 169.369 17.052C169.369 17.0056 169.369 16.9708 169.369 16.9244L170.636 16.994H171.549H174.973C175.498 16.994 175.954 16.994 176.342 16.994H177.107C177.267 16.994 177.358 17.0867 177.415 17.2838C177.48 17.5075 177.526 17.7363 177.552 17.9678C177.552 18.2345 177.621 18.5243 177.666 18.8257C177.752 19.0708 177.879 19.2985 178.043 19.4981C177.954 19.5666 177.846 19.6033 177.735 19.6025C177.675 19.6109 177.614 19.5997 177.56 19.5706C177.507 19.5414 177.464 19.4957 177.438 19.4402C177.316 19.1734 177.179 18.9141 177.027 18.6634C176.913 18.4588 176.762 18.2778 176.582 18.1301C176.405 17.983 176.199 17.8762 175.977 17.8171C175.687 17.7412 175.387 17.7061 175.087 17.7128L172.496 17.736Z" fill="white"/>
<path d="M192.718 19.7647H192.456C192.338 19.7723 192.222 19.7397 192.125 19.6719C192.062 19.6187 192.009 19.5562 191.965 19.4865C191.738 18.91 191.364 18.4056 190.881 18.0257C190.371 17.6961 189.772 17.5379 189.169 17.5736C188.902 17.5706 188.636 17.6097 188.381 17.6895C188.143 17.7549 187.918 17.865 187.719 18.0141C187.536 18.1626 187.384 18.3481 187.274 18.559C187.159 18.7719 187.1 19.0116 187.103 19.2546C187.102 19.5194 187.165 19.7805 187.287 20.0149C187.408 20.2493 187.584 20.45 187.799 20.5994C188.432 21.0423 189.119 21.4007 189.842 21.666C190.756 21.9819 191.596 22.4872 192.307 23.1499C192.569 23.4106 192.775 23.7233 192.912 24.0683C193.05 24.4133 193.116 24.7834 193.106 25.1555C193.111 25.6094 193.038 26.0607 192.889 26.4887C192.744 26.8994 192.51 27.2717 192.205 27.5785C191.878 27.8964 191.489 28.1412 191.063 28.2973C190.494 28.492 189.895 28.5823 189.294 28.5639C188.633 28.5745 187.973 28.4966 187.331 28.332C186.808 28.2075 186.305 28.0084 185.836 27.7408C185.836 27.2539 185.745 26.7786 185.676 26.3264C185.608 25.8743 185.528 25.4106 185.437 24.9584C185.535 24.939 185.636 24.939 185.734 24.9584C185.848 24.9463 185.962 24.9795 186.053 25.0512C186.147 25.1312 186.218 25.2353 186.258 25.3526C186.464 26.0656 186.859 26.7074 187.4 27.2075C187.819 27.5039 188.299 27.6979 188.804 27.7744C189.309 27.8508 189.824 27.8076 190.31 27.648C190.57 27.553 190.808 27.4028 191.006 27.2075C191.187 27.03 191.331 26.817 191.429 26.5815C191.521 26.3414 191.567 26.0857 191.565 25.8279C191.577 25.5565 191.528 25.2859 191.421 25.0367C191.314 24.7876 191.153 24.5665 190.949 24.3904C190.412 23.9776 189.81 23.6601 189.169 23.4513C188.704 23.2832 188.251 23.0857 187.811 22.8601C187.428 22.6793 187.074 22.4409 186.761 22.1529C186.472 21.8927 186.243 21.5724 186.087 21.2138C185.918 20.8153 185.836 20.3841 185.848 19.9502C185.853 19.5516 185.934 19.1579 186.087 18.7909C186.239 18.4167 186.469 18.0805 186.761 17.8054C187.075 17.5113 187.444 17.2829 187.845 17.133C188.298 16.964 188.778 16.8814 189.26 16.8896C189.789 16.8896 190.317 16.944 190.835 17.0519C191.411 17.1794 191.976 17.3538 192.524 17.5736C192.524 17.9214 192.581 18.304 192.627 18.7329C192.659 19.122 192.713 19.509 192.787 19.8922" fill="white"/>
<path d="M207.625 19.7647H207.362C207.245 19.7742 207.128 19.7414 207.031 19.6719C206.966 19.6219 206.912 19.5588 206.872 19.4865C206.642 18.9119 206.268 18.4083 205.787 18.0257C205.276 17.6996 204.678 17.5417 204.076 17.5736C203.805 17.5698 203.535 17.6089 203.277 17.6895C203.042 17.755 202.821 17.8651 202.626 18.0141C202.436 18.1587 202.28 18.3449 202.17 18.559C202.063 18.775 202.009 19.0132 202.01 19.2546C202.007 19.5186 202.068 19.7793 202.187 20.0138C202.306 20.2483 202.481 20.4494 202.695 20.5994C203.329 21.0399 204.015 21.3982 204.737 21.666C205.653 21.985 206.496 22.4899 207.214 23.1499C207.472 23.4128 207.675 23.7261 207.81 24.0708C207.945 24.4155 208.01 24.7845 208.002 25.1555C208.007 25.6094 207.933 26.0607 207.785 26.4887C207.648 26.9008 207.417 27.2742 207.111 27.5785C206.768 27.9034 206.359 28.1486 205.913 28.2973C205.343 28.491 204.745 28.5813 204.144 28.5639C203.479 28.5751 202.815 28.4972 202.17 28.332C201.647 28.2059 201.144 28.0069 200.674 27.7408C200.674 27.2539 200.595 26.7786 200.526 26.3264C200.458 25.8743 200.366 25.4106 200.275 24.9584C200.373 24.939 200.474 24.939 200.572 24.9584C200.69 24.9468 200.807 24.9798 200.903 25.0512C200.989 25.1354 201.055 25.2384 201.097 25.3526C201.311 26.0616 201.705 26.7011 202.238 27.2075C202.787 27.6414 203.473 27.8559 204.167 27.8103C204.501 27.816 204.833 27.761 205.148 27.648C205.41 27.5556 205.648 27.4051 205.845 27.2075C206.029 27.0332 206.173 26.8194 206.267 26.5815C206.363 26.3422 206.413 26.0864 206.415 25.8279C206.426 25.5555 206.374 25.2843 206.266 25.0351C206.157 24.786 205.993 24.5654 205.787 24.3904C205.255 23.9774 204.656 23.6598 204.018 23.4513C203.551 23.2809 203.094 23.0835 202.649 22.8601C202.267 22.6765 201.914 22.4384 201.599 22.1529C201.314 21.8895 201.085 21.57 200.926 21.2138C200.756 20.8153 200.675 20.3841 200.686 19.9502C200.691 19.5516 200.773 19.1579 200.926 18.7909C201.081 18.416 201.315 18.0798 201.61 17.8054C201.919 17.5089 202.284 17.28 202.683 17.133C203.136 16.965 203.616 16.8825 204.098 16.8896C204.627 16.8896 205.155 16.9439 205.673 17.0519C206.253 17.1792 206.822 17.3536 207.374 17.5736C207.374 17.9214 207.431 18.3039 207.465 18.7329C207.499 19.1618 207.568 19.5096 207.636 19.8922" fill="white"/>
</svg>
